<?xml version="1.0" standalone="no"?><!DOCTYPE svg PUBLIC "-//W3C//DTD SVG 1.1//EN" "http://www.w3.org/Graphics/SVG/1.1/DTD/svg11.dtd"><svg t="1755424397848" class="icon" viewBox="0 0 1024 1024" version="1.1" xmlns="http://www.w3.org/2000/svg" p-id="14518" xmlns:xlink="http://www.w3.org/1999/xlink" width="200" height="200"><path d="M550.912 87.424l286.912 141.824c18.752 9.28 32.576 26.304 37.888 46.72l81.792 305.28c6.144 22.848 0.832 47.36-14.208 65.472L719.36 917.824c-13.632 16.64-33.92 26.24-55.296 26.176H339.2c-21.568 0-41.92-9.728-55.552-26.624L80.32 666.88a73.024 73.024 0 0 1-14.976-60.032l61.632-319.168c5.376-27.392 23.808-50.304 49.28-61.248 78.08-34.176 244.992-109.376 313.856-140.16 19.392-8.768 41.728-8.32 60.8 1.152z m-57.6 61.888c-59.008 26.56-202.048 90.432-268.992 119.488a72.059 72.059 0 0 0-42.112 52.352L161.152 428.8l-8.064 41.344L129.28 592.64a61.696 61.696 0 0 0 12.8 51.2l174.336 213.568A61.44 61.44 0 0 0 364.032 880h278.592a61.696 61.696 0 0 0 47.36-22.272l191.808-231.296a62.208 62.208 0 0 0 12.16-55.744L823.68 310.72a61.76 61.76 0 0 0-32.384-39.424L545.408 150.4a61.184 61.184 0 0 0-52.096-1.024z m94.592 443.136l12.544 23.04a23.488 23.488 0 0 0 27.776 11.008l24.768-8.192a130.762 130.762 0 0 1 30.208 33.152l-9.984 24.128a23.488 23.488 0 0 0 8.768 28.736l21.952 14.272a129.324 129.324 0 0 1-6.592 44.16l-25.024 7.232a23.552 23.552 0 0 0-16.512 24.384l2.56 25.984a126.72 126.72 0 0 1-38.464 22.144l-21.248-15.168a23.168 23.168 0 0 0-29.76 2.24L549.888 848a127.36 127.36 0 0 1-41.344-16.384l-1.28-26.048a23.488 23.488 0 0 0-20.352-22.144l-25.856-3.392A129.088 129.088 0 0 1 448 737.28l19.456-17.344a23.68 23.68 0 0 0 4.416-29.76l-13.44-22.08c6.144-13.696 14.656-26.176 25.088-36.928l25.472 4.48a23.296 23.296 0 0 0 25.92-15.104l9.024-24.512a135.04 135.04 0 0 1 43.968-3.648z m-47.68 58.624a78.784 78.784 0 0 0-42.752 76.16c1.472 20.8 11.2 40.128 26.88 53.76a78.336 78.336 0 0 0 125.44-35.072 78.976 78.976 0 0 0-23.232-84.224 77.888 77.888 0 0 0-86.336-10.624zM384.256 496l2.56 0.96 27.136 16.256a8.32 8.32 0 0 1 3.328 10.112l-4.736 12.224a8.384 8.384 0 0 0 1.152 8.128c3.84 5.248 7.104 10.88 9.664 17.024a7.68 7.68 0 0 0 6.144 5.056l12.48 1.792h-0.64c3.84 0.512 6.72 4.032 6.656 8.064v32.704a8 8 0 0 1-6.72 8l-12.48 1.792a7.68 7.68 0 0 0-6.08 5.12 82.609 82.609 0 0 1-9.728 16.96 8.512 8.512 0 0 0-1.152 8.128l4.736 12.16a8.32 8.32 0 0 1-3.264 10.176l-27.136 16.256a7.424 7.424 0 0 1-9.728-1.984l-7.68-10.112a7.808 7.808 0 0 0-7.424-3.072 73.088 73.088 0 0 1-18.816 0 7.616 7.616 0 0 0-7.232 3.072l-7.744 10.112a7.68 7.68 0 0 1-9.728 1.984l-27.008-16.256a8.32 8.32 0 0 1-3.392-10.112l4.736-12.224a8.704 8.704 0 0 0-1.088-8.128 77.44 77.44 0 0 1-9.664-17.024 8.192 8.192 0 0 0-6.208-5.056l-12.544-1.792a8.064 8.064 0 0 1-6.656-7.936v-32.64c0-4.096 2.816-7.552 6.656-8.128l12.608-1.792a7.936 7.936 0 0 0 6.144-5.12c2.496-6.016 5.76-11.776 9.664-16.96a8.96 8.96 0 0 0 1.152-8.128l-4.736-12.16a8.32 8.32 0 0 1 3.328-10.176l27.008-16.256a7.68 7.68 0 0 1 9.728 1.984l7.68 10.112a7.808 7.808 0 0 0 7.424 3.072 70.72 70.72 0 0 1 19.392 0 7.808 7.808 0 0 0 7.36-3.072l7.744-10.112a7.424 7.424 0 0 1 9.664-1.984z m-31.616 40.32c-29.44 0-53.312 24.896-53.312 55.616s23.872 55.68 53.312 55.68c29.44 0 53.312-24.96 53.312-55.68s-23.872-55.68-53.312-55.68z m154.688-197.76l57.28 29.824c7.04 3.648 11.328 10.432 11.392 17.728v59.648a19.84 19.84 0 0 1-7.488 15.168l-3.84 2.56-57.472 29.76a24.96 24.96 0 0 1-22.528 0l-57.28-29.76A20.288 20.288 0 0 1 416 445.76v-59.648a19.84 19.84 0 0 1 7.488-15.168l3.84-2.56 57.472-29.76a24.96 24.96 0 0 1 22.528 0z m192 0l57.28 29.824c7.04 3.648 11.328 10.432 11.392 17.728v59.648a19.84 19.84 0 0 1-7.488 15.168l-3.84 2.56-57.472 29.76a24.96 24.96 0 0 1-22.528 0l-57.28-29.76A20.288 20.288 0 0 1 608 445.76v-59.648a19.84 19.84 0 0 1 7.488-15.168l3.84-2.56 57.472-29.76a24.96 24.96 0 0 1 22.528 0z m-272.32 33.856a6.016 6.016 0 0 0-3.712 2.624c-1.6 2.688-0.64 6.08 2.304 7.68l64.384 33.728v71.04c0 1.408 0.64 2.816 1.792 3.84a6.272 6.272 0 0 0 4.288 1.536 6.144 6.144 0 0 0 4.352-1.472 5.056 5.056 0 0 0 1.728-3.904v-70.4l64.512-33.92a5.44 5.44 0 0 0 2.688-6.784l-0.512-0.832a6.336 6.336 0 0 0-3.648-2.56 7.104 7.104 0 0 0-4.736 0l-64.384 33.856-64.32-33.92a6.656 6.656 0 0 0-4.736-0.512z m192 0a6.016 6.016 0 0 0-3.712 2.624c-1.6 2.688-0.64 6.08 2.304 7.68l64.384 33.728v71.04c0 1.408 0.64 2.816 1.792 3.84a6.272 6.272 0 0 0 4.288 1.536 6.144 6.144 0 0 0 4.352-1.472 5.056 5.056 0 0 0 1.728-3.904v-70.4l64.512-33.92a5.44 5.44 0 0 0 2.688-6.784l-0.512-0.832a6.336 6.336 0 0 0-3.648-2.56 7.104 7.104 0 0 0-4.736 0l-64.384 33.856-64.32-33.92a6.656 6.656 0 0 0-4.736-0.512z m-15.68-161.792l57.28 29.76c7.04 3.648 11.328 10.432 11.392 17.728v59.648a19.84 19.84 0 0 1-7.488 15.168l-3.84 2.56-57.472 29.76a24.96 24.96 0 0 1-22.528 0l-57.28-29.76A20.288 20.288 0 0 1 512 317.824v-59.648a19.84 19.84 0 0 1 7.488-15.168l3.84-2.56 57.472-29.76a24.96 24.96 0 0 1 22.528 0z m-80.32 33.792a6.016 6.016 0 0 0-3.712 2.624c-1.6 2.688-0.64 6.08 2.304 7.68l64.384 33.728v71.04c0 1.408 0.64 2.816 1.792 3.84a6.272 6.272 0 0 0 4.288 1.536 6.144 6.144 0 0 0 4.352-1.472 5.056 5.056 0 0 0 1.728-3.904v-70.4l64.512-33.92a5.44 5.44 0 0 0 2.688-6.784l-0.512-0.832a6.336 6.336 0 0 0-3.648-2.56 7.104 7.104 0 0 0-4.736 0l-64.384 33.856-64.32-33.92a6.656 6.656 0 0 0-4.736-0.512z" fill="#2c2c2c" p-id="14519"></path></svg>