<?xml version="1.0" standalone="no"?><!DOCTYPE svg PUBLIC "-//W3C//DTD SVG 1.1//EN" "http://www.w3.org/Graphics/SVG/1.1/DTD/svg11.dtd"><svg t="1755424425439" class="icon" viewBox="0 0 1052 1024" version="1.1" xmlns="http://www.w3.org/2000/svg" p-id="15156" xmlns:xlink="http://www.w3.org/1999/xlink" width="205.46875" height="200"><path d="M337.570442 1007.278779c-24.452627 0-47.544032-10.865092-63.167229-30.563727L36.683052 681.256096c-15.623197-19.698635-21.734297-44.825703-15.623197-69.282441l84.901527-368.812723c5.432546-24.452627 21.734297-44.151261 44.151261-55.016354l343.681542-164.374618c10.869205-5.428434 23.095518-8.146763 35.321831-8.146763 12.226313 0 24.448514 2.714217 35.317719 8.150875l343.685655 163.691952c22.412851 10.865092 38.714602 30.563727 44.147148 55.016354l84.901526 368.812722c5.436659 24.452627 0 49.583807-15.619084 69.282442l-237.728386 295.458956c-15.623197 19.015968-38.714602 30.563727-63.167229 30.563727l-383.074698 0.678554z" fill="#326DE6" p-id="15157"></path><path d="M528.429237 32.603502c9.512096 0 19.02008 2.035663 27.84951 6.1111l343.685655 163.691952c17.658859 8.82943 31.242281 25.131181 35.317718 44.151261l84.901527 368.812723c4.753992 19.698635 0 40.075823-12.904868 55.694908l-237.724273 295.463068c-12.226313 15.619084-31.246394 24.448514-50.940916 24.448514H337.570442c-19.698635 0-38.714602-8.82943-50.940916-24.448514l-237.724273-295.463068c-12.226313-15.619084-16.984418-35.996273-12.904867-55.694908l84.901526-368.812723c4.753992-19.698635 17.658859-36.000386 35.317719-44.151261L499.909398 38.040161c8.82943-3.396884 19.015968-5.432546 28.523951-5.432547z m0-31.924948c-14.261976 0-28.523952 3.396884-42.111486 9.507984l-343.681542 164.374619c-27.170956 12.904867-46.186924 36.674827-52.980691 65.881445L4.753992 609.259438c-6.789655 29.206618 0 59.091791 19.02008 82.865863l237.724273 295.458956c18.341526 23.091406 46.186924 35.996273 75.393543 35.996273h381.039036c29.206618 0 57.056129-12.904867 75.393542-35.996273l237.728385-295.463068c19.015968-23.091406 25.809735-53.655133 19.015968-82.865864l-84.901526-368.812723c-6.789655-29.206618-25.809735-52.976578-52.976578-65.881445L569.862169 10.182426C556.957301 4.075438 542.695325 0.678554 528.429237 0.678554z" fill="#FFFFFF" p-id="15158"></path><path d="M872.793446 586.16392c-0.678554 0-0.678554 0 0 0h-0.678554c-0.678554 0-1.357108 0-1.357109-0.678555-1.357108 0-2.714217-0.678554-4.075438-0.678554-4.753992-0.678554-8.82943-1.357108-12.904867-1.357108-2.039775 0-4.075438 0-6.793767-0.682667h-0.678554c-14.261976-1.357108-25.809735-2.714217-36.67894-6.1111-4.753992-2.039775-6.1111-4.753992-7.472321-7.472322 0-0.678554-0.678554-0.678554-0.678555-1.357108l-8.829429-2.714217a268.666345 268.666345 0 0 0-4.753992-95.774843 279.868659 279.868659 0 0 0-38.036049-88.976964l6.793768-6.1111v-1.357109c0-3.396884 0.678554-6.793767 3.392771-10.190651 8.150876-7.472321 18.341526-13.583422 30.567839-21.055742 2.035663-1.357108 4.071325-2.035663 6.1111-3.396884 4.075438-2.035663 7.472321-4.071325 11.547759-6.789655 0.678554-0.678554 2.035663-1.357108 3.396884-2.714217 0.678554-0.682667 1.357108-0.682667 1.357108-1.36122 9.507984-8.150876 11.547759-21.734297 4.753992-30.56784-3.396884-4.753992-9.507984-7.468209-15.623196-7.468209-5.428434 0-10.186538 2.035663-14.940531 5.432547l-1.357108 1.357108c-1.357108 0.678554-2.039775 2.039775-3.396884 2.718329-3.396884 3.396884-6.115213 6.1111-8.829429 9.507984-1.357108 1.357108-2.714217 3.396884-4.753992 4.753992-9.512096 10.190651-18.341526 18.341526-27.170956 24.452627-2.035663 1.357108-4.071325 2.039775-6.1111 2.039775-1.357108 0-2.718329 0-4.075438-0.682667h-1.357109l-8.154988 5.436659c-8.82943-9.507984-18.337414-17.658859-27.845397-25.809735a271.248964 271.248964 0 0 0-141.957655-56.377574l-0.678554-8.82943-1.357108-1.357109c-2.039775-2.039775-4.753992-4.075438-5.436659-8.829429-0.678554-10.869205 0.682667-23.095518 2.039775-36.67894v-0.678554c0-2.039775 0.678554-4.753992 1.357108-6.793767 0.678554-4.071325 1.357108-8.150876 2.039776-12.904868v-6.1111c0-12.226313-9.512096-22.412851-21.055743-22.412852-5.436659 0-10.869205 2.714217-14.944643 6.789655-4.071325 4.075438-6.1111 9.507984-6.1111 15.623197v5.432546c0 4.753992 0.678554 8.82943 2.035662 12.904867 0.678554 2.039775 0.678554 4.075438 1.357109 6.793768v0.678554c1.357108 13.583422 3.396884 25.809735 2.039775 36.67894-0.678554 4.753992-3.396884 6.789655-5.432546 8.829429l-1.357109 1.357109-0.682666 8.829429c-12.226313 1.357108-24.452627 2.714217-36.67894 5.432547-52.298024 11.547759-98.484948 38.040161-134.481221 76.072096l-6.793767-4.753992h-1.357109c-1.357108 0-2.718329 0.678554-4.075437 0.678554-2.039775 0-4.075438-0.678554-6.115213-2.035662-8.82943-6.1111-17.658859-14.944643-27.166844-25.131181-1.357108-1.357108-2.714217-3.396884-4.753992-4.753992-2.718329-3.396884-5.436659-6.115213-8.833542-9.507984-0.678554-0.682667-2.035663-1.357108-3.392771-2.718329-0.678554-0.678554-1.357108-0.678554-1.357108-1.357109a23.73706 23.73706 0 0 0-14.944643-5.436658c-6.115213 0-12.226313 2.718329-15.623197 7.472321-6.793767 8.82943-4.753992 22.412851 4.753992 30.563727 0.678554 0 0.678554 0.682667 1.357109 0.682666 1.357108 0.678554 2.039775 2.035663 3.396883 2.714217 4.075438 2.714217 7.472321 4.753992 11.547759 6.793767 2.039775 0.678554 4.075438 2.035663 6.115213 3.396884 12.222201 7.468209 22.412851 13.583422 30.563727 21.055743 3.396884 3.392771 3.396884 6.789655 3.396884 10.186538v1.357108l6.789654 6.115213c-1.357108 2.035663-2.714217 3.396884-3.396883 5.432546-33.96061 53.659245-46.865478 116.826474-38.036048 179.315149l-8.82943 2.714217c0 0.682667-0.678554 0.682667-0.678554 1.357108-1.357108 2.718329-3.396884 5.436659-7.472322 7.472322-10.186538 3.396884-22.412851 4.758104-36.674827 6.115212h-0.682667c-2.035663 0-4.753992 0-6.789654 0.678555-4.075438 0-8.150876 0.678554-12.904868 1.357108-1.357108 0-2.714217 0.682667-4.075437 0.682667-0.678554 0-1.357108 0-2.039776 0.678554-12.226313 2.714217-19.698635 14.261976-17.658859 25.127068 2.039775 9.512096 10.869205 15.627309 21.734297 15.62731 2.039775 0 3.396884 0 5.436659-0.682667 0.678554 0 1.357108 0 1.357108-0.678554 1.357108 0 2.714217-0.678554 4.071326-0.678555 4.758104-1.357108 8.154988-2.714217 12.230425-4.753992 2.035663-0.678554 4.071325-2.039775 6.111101-2.714216h0.678554c12.904867-4.758104 24.452627-8.833542 35.321831-10.190651h1.357109c4.075438 0 6.793767 2.035663 8.829429 3.396884 0.678554 0 0.678554 0.678554 1.357109 0.678554l9.512096-1.357109c16.301751 50.258249 47.544032 95.088064 88.976964 127.691567 9.507984 7.468209 19.015968 13.583422 29.206618 19.698634l-4.075437 8.825317c0 0.682667 0.678554 0.682667 0.678554 1.357109 1.357108 2.718329 2.714217 6.115213 1.357108 10.869205-4.071325 10.190651-10.186538 20.377189-17.658859 31.924947v0.678555c-1.357108 2.039775-2.714217 3.396884-4.071325 5.432546-2.718329 3.396884-4.758104 6.793767-7.476434 10.869205-0.678554 0.678554-1.357108 2.035663-2.035663 3.396883 0 0.678554-0.678554 1.357108-0.678554 1.357109-5.432546 11.547759-1.357108 24.452627 8.82943 29.206618 2.714217 1.357108 5.432546 2.039775 8.150875 2.039775 8.150876 0 16.301751-5.436659 20.377189-12.90898 0-0.678554 0.678554-1.357108 0.678554-1.357108 0.678554-1.357108 1.357108-2.714217 2.035663-3.396884 2.039775-4.753992 2.718329-8.150876 4.075438-12.226313l2.039775-6.1111c4.753992-13.583422 8.150876-24.452627 14.261976-33.960611 2.714217-4.075438 6.115213-4.753992 8.829429-6.115213 0.678554 0 0.678554 0 1.357109-0.678554l4.758104-8.82943c29.885173 11.547759 62.488675 17.658859 95.088064 17.65886 19.698635 0 40.075823-2.035663 59.095904-6.789655a301.86204 301.86204 0 0 0 35.317719-10.19065l4.071325 7.472321c0.682667 0 0.682667 0 1.361221 0.678554 3.396884 0.678554 6.1111 2.039775 8.82943 6.115213 5.432546 9.507984 9.507984 21.055743 14.261976 33.96061v0.678555l2.039775 6.1111c1.357108 4.075438 2.035663 8.150876 4.071325 12.226313 0.682667 1.357108 1.361221 2.039775 2.039775 3.396884 0 0.678554 0.682667 1.357108 0.682667 1.357108 4.071325 8.150876 12.222201 12.90898 20.373076 12.90898 2.718329 0 5.436659-0.682667 8.150876-2.039775 4.753992-2.714217 8.82943-6.793767 10.19065-12.226313 1.357108-5.432546 1.357108-11.547759-1.357108-16.980305 0-0.678554-0.682667-0.678554-0.682667-1.357109-0.678554-1.357108-1.357108-2.714217-2.035662-3.396883-2.039775-4.075438-4.753992-7.472321-7.472322-10.869205-1.357108-2.035663-2.714217-3.392771-4.071325-5.428434v-0.682667c-7.476434-11.547759-14.270201-21.734297-17.662972-31.924947-1.357108-4.753992 0-7.468209 0.678554-10.865093 0-0.678554 0.678554-0.678554 0.678555-1.357108l-3.396884-8.150876c36.000386-21.055743 66.564112-50.945028 89.659631-87.619855 12.226313-19.02008 21.734297-40.075823 28.523951-61.131566l8.150876 1.357108c0.682667 0 0.682667-0.678554 1.357108-0.678554 2.718329-1.357108 4.758104-3.392771 8.833542-3.392771h1.357109c10.869205 1.357108 22.412851 5.428434 35.321831 10.186538h0.678554c2.035663 0.678554 4.071325 2.035663 6.111101 2.714217 4.075438 2.039775 7.472321 3.396884 12.226313 4.758104 1.357108 0 2.714217 0.678554 4.075438 0.678554 0.678554 0 1.357108 0 2.035662 0.678555 2.039775 0.678554 3.396884 0.678554 5.436659 0.678554 10.186538 0 19.015968-6.789655 21.734297-15.619084 0-8.150876-7.472321-19.02008-19.698634-22.412852z m-314.479036-33.282057l-29.885173 14.266089-29.885173-14.266089-7.468209-31.920835 20.373077-25.809735h33.282056l20.377189 25.809735-6.789655 31.920835z m177.279486-70.635437a214.168161 214.168161 0 0 1 4.753992 68.595662l-103.921607-29.88106c-9.507984-2.714217-14.94053-12.226313-12.904867-21.734297 0.678554-2.718329 2.039775-5.436659 4.075437-7.472321l82.18731-74.036434c11.543647 19.02008 20.373076 40.754378 25.809735 64.524337z m-58.413237-105.278715l-88.976964 63.167229c-7.472321 4.753992-17.662972 3.392771-23.774073-4.075438-2.035663-2.039775-2.714217-4.758104-3.396883-7.472321l-6.1111-110.715374a206.157108 206.157108 0 0 1 122.25902 59.095904zM480.206651 321.264578c7.472321-1.357108 14.261976-2.714217 21.734297-4.071325l-6.111101 108.671486c-0.678554 9.507984-8.150876 17.658859-18.341526 17.658859-2.714217 0-6.1111-0.678554-8.150875-2.035662L379.003373 376.967711c27.84951-27.84951 62.488675-46.86959 101.203278-55.69902z m-133.80678 96.449285l80.826089 71.996659c7.472321 6.115213 8.150876 17.658859 2.039775 25.131181-2.039775 2.714217-4.753992 4.753992-8.150876 5.436658l-105.278714 30.563727c-4.075438-46.186924 6.1111-93.052402 30.563726-133.128225z m-18.341526 184.069141l108.001157-18.341526c8.82943-0.678554 16.980305 5.436659 19.015968 14.266088 0.678554 4.071325 0.678554 7.472321-0.678554 10.869205l-41.432932 99.842056c-38.036048-24.452627-68.599775-61.81012-84.901526-106.635823z m247.919037 135.163888c-15.623197 3.396884-31.246394 5.432546-47.548145 5.432546-23.76996 0-46.865478-4.071325-68.595663-10.865093l53.655133-97.127839c5.432546-6.115213 14.261976-8.82943 21.734297-4.753992a28.951647 28.951647 0 0 1 8.150876 7.468209l52.298024 94.413622c-6.1111 2.035663-12.904867 3.396884-19.698635 5.432547z m132.445558-94.40951c-16.980305 27.166843-39.397269 48.901141-65.202892 65.881445l-42.79004-102.564498c-2.039775-8.146763 1.357108-16.976193 9.507984-21.055743 2.714217-1.357108 6.1111-2.035663 9.507984-2.035662l108.675598 18.341526c-4.075438 14.94053-10.869205 28.528064-19.698634 41.432932z" fill="#FFFFFF" p-id="15159"></path></svg>